<svg xmlns="http://www.w3.org/2000/svg" width="429" height="71" viewBox="0 0 429 71">
  <defs>
    <style>
      .cls-1 {
        fill: #182b37;
        fill-rule: evenodd;
      }
    </style>
  </defs>
  <path id="logo-dk" class="cls-1" d="M187.777,8070.38v-25.06q0-3.33,3.087-3.33h1.045q3.234,0,3.233,3.34v22.66H207.2q3.378,0,3.379,3.07v0.19q0,3.165-3.379,3.16H191.593a3.7,3.7,0,0,1-2.807-1.04A4.143,4.143,0,0,1,187.777,8070.38Zm26.351-27.55a2.86,2.86,0,0,1,1.045-2.34,4.5,4.5,0,0,1,2.893-.84,4.558,4.558,0,0,1,2.893.83,2.847,2.847,0,0,1,1.045,2.36,2.9,2.9,0,0,1-1.045,2.38,5.348,5.348,0,0,1-5.786,0A2.92,2.92,0,0,1,214.128,8042.83Zm0.413,28.45v-18.03q0-3.375,3.136-3.41h0.729q3.137,0,3.161,3.41v18.03q0,3.33-3.088,3.33h-0.753Q214.542,8074.61,214.541,8071.28Zm12.5,0v-20.63a0.6,0.6,0,0,1,.342-0.3,4.143,4.143,0,0,1,.987-0.35,5.776,5.776,0,0,1,1.306-.16q3.587,0,4.245,3.89a9.185,9.185,0,0,1,8-4.18q4.519,0,6.766,2.79a11.212,11.212,0,0,1,2.248,7.28v11.66q0,3.33-3.087,3.33h-0.754q-3.185,0-3.184-3.36v-10.69a5.9,5.9,0,0,0-1.164-3.86,4.063,4.063,0,0,0-3.322-1.41,5.624,5.624,0,0,0-5.36,3.21v12.75q0,3.36-3.1,3.36h-0.731Q227.036,8074.61,227.036,8071.28Zm28.685-6.28v-11.75q0-3.375,3.087-3.41h0.754q3.184,0,3.184,3.44v10.78a5.8,5.8,0,0,0,1.192,3.86,4.207,4.207,0,0,0,3.4,1.41,5.558,5.558,0,0,0,5.226-3.21v-12.84c0-2.28,1.049-3.42,3.147-3.44H276.4q3.2,0,3.2,3.41v20.56a0.527,0.527,0,0,1-.342.32,3.84,3.84,0,0,1-1,.33,5.812,5.812,0,0,1-1.294.15q-3.537,0-4.244-3.74a9.256,9.256,0,0,1-7.973,4.2q-4.522,0-6.77-2.8A11.235,11.235,0,0,1,255.721,8065Zm27.421,7.37,7.365-10.07-7.317-10.15a0.955,0.955,0,0,1,.378-0.75,4.961,4.961,0,0,1,1.47-1.08,4.338,4.338,0,0,1,2.042-.53,4.236,4.236,0,0,1,3.914,2.56l4.132,6.47,4.133-6.47a4.3,4.3,0,0,1,3.841-2.56,4.578,4.578,0,0,1,2.115.53,5.489,5.489,0,0,1,1.531,1.08,1.014,1.014,0,0,1,.365.63,0.243,0.243,0,0,1-.025.12l-7.414,10.15,7.317,10.07a0.746,0.746,0,0,1-.353.74,5.272,5.272,0,0,1-1.519,1.07,4.669,4.669,0,0,1-2.163.53,4.188,4.188,0,0,1-3.792-2.53l-4.133-6.48-4.084,6.48a4.271,4.271,0,0,1-3.865,2.53,4.48,4.48,0,0,1-2.066-.53,5.481,5.481,0,0,1-1.532-1.08,1.268,1.268,0,0,1-.389-0.63A0.305,0.305,0,0,1,283.142,8072.37Zm33.814,0.15,11.012-28.44a2.683,2.683,0,0,1,1.386-1.64,7.706,7.706,0,0,1,3.4-.55,7.444,7.444,0,0,1,3.379.55,2.714,2.714,0,0,1,1.337,1.64l11.255,28.39a0.429,0.429,0,0,1,.024.14,1.209,1.209,0,0,1-.413.71,5.207,5.207,0,0,1-1.58,1,5.111,5.111,0,0,1-2.018.43q-2.942,0-4.229-3.47l-1.945-5.09h-11.79l-1.945,5.18c-0.794,2.26-2.139,3.38-4.035,3.38a4.805,4.805,0,0,1-1.921-.41,4.585,4.585,0,0,1-1.507-.95,1.1,1.1,0,0,1-.437-0.7A0.487,0.487,0,0,1,316.956,8072.52Zm11.255-11.8h8.873l-4.424-11.7Zm22.146,1.53a12.248,12.248,0,0,1,3.606-9.09,12.553,12.553,0,0,1,9.192-3.56q4.991,0,7.678,2.19c1.794,1.47,2.691,2.95,2.691,4.46a2.574,2.574,0,0,1-.949,2.07,4.459,4.459,0,0,1-1.9.99,1.14,1.14,0,0,1-1.045-.01,6.094,6.094,0,0,0-6.186-3.96,6.266,6.266,0,0,0-4.761,1.96,6.873,6.873,0,0,0-1.864,4.95,7.164,7.164,0,0,0,1.864,5.09,6.219,6.219,0,0,0,4.761,1.99,6.135,6.135,0,0,0,6.186-3.98,1.15,1.15,0,0,1,1.021-.03,3.963,3.963,0,0,1,1.92.99,2.666,2.666,0,0,1,.949,2.13c0,1.45-.918,2.91-2.751,4.4s-4.372,2.23-7.618,2.23A12.316,12.316,0,0,1,350.357,8062.25Zm25.622,5.69a6.547,6.547,0,0,1,3.816-6.18q3.817-1.995,11.815-2.09h0.8q0-4.65-5-4.65a6.182,6.182,0,0,0-6.01,3.6,1.808,1.808,0,0,1-1.127.05,5,5,0,0,1-2.265-.82,2.333,2.333,0,0,1-1.138-2.1q0-2.55,2.889-4.37t8.115-1.83q11.556,0,11.558,10.02v14.41a1.077,1.077,0,0,1-.838.51,6.011,6.011,0,0,1-1.849.26q-3.573,0-4.191-3.82-2.8,4.05-8.434,4.04a8.676,8.676,0,0,1-5.965-1.94A6.51,6.51,0,0,1,375.979,8067.94Zm6.709-.51a2.575,2.575,0,0,0,1.023,2.14,4.318,4.318,0,0,0,2.755.81,6.055,6.055,0,0,0,4.263-1.55,5.1,5.1,0,0,0,1.683-3.93v-1.41l-1.292.07a18.037,18.037,0,0,0-6.336,1.01A3.01,3.01,0,0,0,382.688,8067.43Zm20.42-5.01c0-3.9,1.045-7.01,3.136-9.36a10.492,10.492,0,0,1,8.216-3.51,9.926,9.926,0,0,1,4.583,1.05,8.217,8.217,0,0,1,3.2,2.73v-12.64a0.5,0.5,0,0,1,.342-0.31,4.871,4.871,0,0,1,1-.32,6.44,6.44,0,0,1,1.293-.14q4.39,0,4.39,5.6v25.77q0,3.315-3.074,3.32h-0.755c-2.131,0-3.2-1.09-3.2-3.25v-0.79a8.535,8.535,0,0,1-7.876,4.5,10.358,10.358,0,0,1-8.119-3.52A13.2,13.2,0,0,1,403.108,8062.42Zm6.782,0a7.592,7.592,0,0,0,1.737,5.18,5.681,5.681,0,0,0,4.486,2,6.24,6.24,0,0,0,4.327-1.62,5.327,5.327,0,0,0,1.8-4.15v-4.64a6.071,6.071,0,0,0-6.029-3.9,5.819,5.819,0,0,0-4.6,1.95A7.545,7.545,0,0,0,409.89,8062.42Zm23.288,0.02a12.651,12.651,0,0,1,3.587-9.23,12.226,12.226,0,0,1,9.127-3.66,11.706,11.706,0,0,1,8.727,3.4,11.924,11.924,0,0,1,3.355,8.76v0.49a2.691,2.691,0,0,1-.4,1.47,1.47,1.47,0,0,1-1.266.48H439.533a5.751,5.751,0,0,0,2.26,3.99,7.748,7.748,0,0,0,4.814,1.46q4.788,0,6.879-3.39a1.545,1.545,0,0,1,.856.1,3.913,3.913,0,0,1,1.653.94,2.435,2.435,0,0,1,.844,1.91q0,2.265-2.857,4.09a14.121,14.121,0,0,1-7.647,1.82,13.262,13.262,0,0,1-9.57-3.44A12.157,12.157,0,0,1,433.178,8062.44Zm6.369-2.38h11.96a5.888,5.888,0,0,0-1.615-4.07,5.46,5.46,0,0,0-4.073-1.55,5.948,5.948,0,0,0-4.157,1.57A6.721,6.721,0,0,0,439.547,8060.06Zm22.365,11.22v-20.63a0.6,0.6,0,0,1,.342-0.3,4.143,4.143,0,0,1,.987-0.35,5.776,5.776,0,0,1,1.306-.16c2.39,0,3.8,1.27,4.244,3.79a8.727,8.727,0,0,1,7.493-4.08q5.925,0,7.773,4.87a9.142,9.142,0,0,1,8.217-4.87c2.99,0,5.2.87,6.63,2.59a10.767,10.767,0,0,1,2.146,7.07v12.07q0,3.33-3.1,3.33H497.22q-3.2,0-3.2-3.36v-11.01q0-4.965-4.254-4.95a5.176,5.176,0,0,0-2.782.82,5.713,5.713,0,0,0-2.031,2.2v12.94q0,3.36-3.087,3.36h-0.7q-3.234,0-3.233-3.36v-10.83q0-5.13-4.17-5.13a5.159,5.159,0,0,0-2.776.82,5.915,5.915,0,0,0-2.049,2.2v12.94q0,3.36-3.1,3.36h-0.731Q461.91,8074.61,461.912,8071.28Zm41.714-19.39a0.854,0.854,0,0,1,.414-0.7,5.45,5.45,0,0,1,1.458-.94,4.366,4.366,0,0,1,1.945-.46q2.844,0,3.938,3.56l5.275,13.89,4.692-13.84q1.094-3.585,3.865-3.61a4.732,4.732,0,0,1,1.872.43,5.344,5.344,0,0,1,1.494.9,0.8,0.8,0,0,1,.426.67l-11.06,28.75q-1.338,3.435-3.963,3.43a4.647,4.647,0,0,1-1.9-.42,5.783,5.783,0,0,1-1.447-.87,0.726,0.726,0,0,1-.4-0.65l4.035-9.15a2.578,2.578,0,0,1-2.285-1.6ZM133.3,8067.17l5.616,11.24,5.423-11.24-5.423-3.68Zm43.6-28.27-37.55-15.9L100,8038.9l14.165,6.48a30.561,30.561,0,0,0-6.446,18.27v21.96l9.862,0.17a30.682,30.682,0,0,0,41.823,0l9.717-.17v-21.46c0-.17-0.048-0.33-0.048-0.5a30.553,30.553,0,0,0-6.565-18.27l6.613-3.3v4.03h0v8.3h3.319v-8.3h0v-5.06Zm-12,24.75a26.269,26.269,0,1,1-46.642-16.59l21.026,9.38,19.807-9.27A26.189,26.189,0,0,1,164.9,8063.65ZM150.1,8062.6a2.06,2.06,0,1,0-2.058-2.06A2.058,2.058,0,0,0,150.1,8062.6Zm-23.478-4.12a2.06,2.06,0,1,0,2.058,2.06A2.058,2.058,0,0,0,126.627,8058.48Z" transform="translate(-100 -8023)"/>
</svg>
